<svg xmlns="http://www.w3.org/2000/svg" viewBox="0 0 48 48" width="48" height="48">
  <defs>
    <linearGradient id="g" x1="0" y1="0" x2="1" y2="1">
      <stop offset="0" stop-color="#8b5cf6"/>
      <stop offset="1" stop-color="#c4b5fd"/>
    </linearGradient>
  </defs>
  <rect x="1" y="1" width="46" height="46" rx="12" fill="#07040d"/>
  <rect x="1.75" y="1.75" width="44.5" height="44.5" rx="11.25" fill="none" stroke="url(#g)" stroke-width="1.5" opacity="0.55"/>

  <g stroke="url(#g)" stroke-width="1.5" stroke-linecap="round">
    <line x1="7" y1="26.5" x2="41" y2="26.5"/>
    <line x1="7" y1="37.5" x2="41" y2="37.5"/>
  </g>
  <g fill="url(#g)" opacity="0.82">
    <rect x="8.4" y="28.4" width="9" height="7.2" rx="1.4"/>
    <rect x="19.5" y="28.4" width="9" height="7.2" rx="1.4"/>
    <rect x="30.6" y="28.4" width="9" height="7.2" rx="1.4"/>
  </g>

  <g fill="none" stroke-linecap="round" stroke-linejoin="round">
    <path d="M19.8 15.8 L24 23 L31 34" stroke="#07040d" stroke-width="3.6"/>
    <path d="M28.2 15.8 L24 23 L17 34" stroke="#07040d" stroke-width="3.6"/>
    <path d="M19.8 15.8 L24 23 L31 34" stroke="url(#g)" stroke-width="1.8"/>
    <path d="M28.2 15.8 L24 23 L17 34" stroke="url(#g)" stroke-width="1.8"/>
  </g>
  <g fill="#07040d" stroke="url(#g)" stroke-width="1.8">
    <circle cx="17.5" cy="13.5" r="3.3"/>
    <circle cx="30.5" cy="13.5" r="3.3"/>
  </g>
  <circle cx="24" cy="23" r="1.5" fill="#c4b5fd"/>
</svg>
